<?xml version="1.0" encoding="utf-8"?>
<!-- Generator: Adobe Illustrator 21.0.0, SVG Export Plug-In . SVG Version: 6.00 Build 0)  -->
<svg version="1.1" id="レイヤー_1" xmlns="http://www.w3.org/2000/svg" xmlns:xlink="http://www.w3.org/1999/xlink" x="0px"
	 y="0px" viewBox="0 0 183.2 130.6" style="enable-background:new 0 0 183.2 130.6;" xml:space="preserve">
<path d="M182.6,98.9c-0.5-0.3-1.1-0.1-1.4,0.4c-0.4,0.7-10.7,18-32.9,7.6c-11-5.2-15.6-14.3-19.5-22.3c-4.2-8.4-8.1-16.4-18.9-16.4
	c-9.3,0-15.8,4.5-18.3,12.3c-2.5-7.8-9.1-12.3-18.3-12.3c-10.8,0-14.7,8-18.9,16.4c-4,8-8.5,17.2-19.5,22.3
	C12.8,117.3,2.5,100.1,2,99.4c-0.3-0.5-0.9-0.7-1.4-0.4c-0.5,0.3-0.7,0.9-0.5,1.4c14,34.4,40.3,31,52.9,29.4
	c0.8-0.1,1.5-0.2,2.2-0.3c19.2-2.2,32.5-17.1,36.4-32.3c3.9,15.2,17.2,30.1,36.4,32.3c0.7,0.1,1.4,0.2,2.2,0.3
	c3.2,0.4,7.2,0.9,11.7,0.9c13.4,0,30.7-4.6,41.2-30.3C183.3,99.8,183.1,99.2,182.6,98.9z"/>
<path d="M128.4,0.4c-15.6,0-28.4,12.3-29.1,27.7H83.5C82.9,12.5,70.1,0,54.3,0C38.2,0,25.2,13.1,25.2,29.2s13.1,29.2,29.2,29.2
	c15.7,0,28.6-12.5,29.1-28.1h15.7c0.4,15.7,13.3,28.4,29.2,28.4c16.1,0,29.2-13.1,29.2-29.2S144.4,0.4,128.4,0.4z M54.3,56.2
	c-14.9,0-27-12.1-27-27s12.1-27,27-27s27,12.1,27,27S69.2,56.2,54.3,56.2z M128.4,56.5c-14.9,0-27-12.1-27-27s12.1-27,27-27
	s27,12.1,27,27S143.2,56.5,128.4,56.5z"/>
</svg>
