<?xml version="1.0" encoding="utf-8"?>
<!-- Generator: Adobe Illustrator 21.0.0, SVG Export Plug-In . SVG Version: 6.00 Build 0)  -->
<svg version="1.1" id="svg_x5F_1" xmlns="http://www.w3.org/2000/svg" xmlns:xlink="http://www.w3.org/1999/xlink" x="0px" y="0px"
	 viewBox="0 0 142.8 110.8" style="enable-background:new 0 0 142.8 110.8;" xml:space="preserve">
<path d="M142.3,86c-0.4-0.2-0.9,0-1.1,0.3c-0.3,0.6-8.3,14-25.6,5.9c-8.6-4-12.1-11.1-15.2-17.4c-3.3-6.6-6.3-12.8-14.7-12.8
	c-7.2,0-12.3,3.5-14.3,9.6c-2-6.1-7.1-9.6-14.3-9.6c-8.4,0-11.5,6.2-14.7,12.8c-3.1,6.3-6.6,13.4-15.2,17.4
	C10,100.4,1.9,87,1.6,86.4C1.4,86,0.9,85.8,0.5,86c-0.4,0.2-0.6,0.7-0.4,1.1C11,113.9,31.5,111.3,41.3,110c0.6-0.1,1.2-0.2,1.7-0.2
	c15-1.7,25.4-13.4,28.4-25.2c3,11.8,13.4,23.5,28.4,25.2c0.5,0.1,1.1,0.1,1.7,0.2c2.5,0.3,5.6,0.7,9.1,0.7
         c10.4,0,23.9-3.6,32.1-23.6C142.9,86.7,142.7,86.2,142.3,86z">
    <animate
 attributeName="opacity"
 attributeType="XML"
 begin="0.6"
 dur="3s"
 repeatCount="indefinite"
 values="0.1;1;0.1" /></path>
<path d="M108.2,0.4C92.6,0.4,79.8,12.7,79,28.1H63.3C62.7,12.5,49.9,0,34.1,0C18.1,0,5,13.1,5,29.2s13.1,29.2,29.2,29.2
	c15.7,0,28.6-12.5,29.1-28.1H79c0.4,15.7,13.3,28.4,29.2,28.4c16.1,0,29.2-13.1,29.2-29.2S124.2,0.4,108.2,0.4z M34.1,56.2
	c-14.9,0-27-12.1-27-27s12.1-27,27-27s27,12.1,27,27S49,56.2,34.1,56.2z M108.2,56.5c-14.9,0-27-12.1-27-27s12.1-27,27-27
	s27,12.1,27,27S123,56.5,108.2,56.5z"></path>
</svg>
